# xmcd
#
# Track frame offsets:
#	150
#	15052
#	39764
#	52744
#	64801
#	77311
#	99425
#	111855
#	125825
#	138419
#	151834
#	164489
#	177285
#	189052
#	200494
#	213114
#	223961
#	248573
#
# Disc length: 3474 seconds
#
# Revision: 1
# Processed by: cddbd v1.5.2PL0 Copyright (c) Steve Scherf et al.
# Submitted via: audiograbber 1.83.01
#
DISCID=e00d9012
DTITLE=Various Artist - Blues Masters, Vol. 13: New York City Blues
DYEAR=1993
DGENRE=Blues
TTITLE0=Lionel Hampton and his Orchestra - Hamp's Boogie Woogie
TTITLE1=Duke Ellingotn and his Orchestra - Happy Go Lucky Local (Parts 1
TTITLE2=Buddy Johnson and his Orchestra - Walk 'Em
TTITLE3=Hot Lips Page - Walkin' In A Daze
TTITLE4=Joe Morris and his Orchestra - Lowe Groovin'
TTITLE5=Etta James and Eddie 'Cleanhead' Wilson - Old Maid Boogie
TTITLE6=Arnett Cobb and his Orchestra - Smooth Sailing
TTITLE7=Lucky Millinder and his Orchestra - D' Natural Blues
TTITLE8=Erskine Hawkins and his Orchestra - John Henry
TTITLE9=Big Joe Turner and Van "Piano Man" Walls - Sixteen
TTITLE10=Cootie Williams - 'Gator Tail (Parts 1 and 2)
TTITLE11=Johnny Hodges and his Orchestra - Castle Rock
TTITLE12=Al Hibbler - After The Lights Go Down Low
TTITLE13=Chuck Calhoun and his Atlantic All-Stars - Hey Tiger
TTITLE14=Big Maybelle - I'm Gettin' 'Long Alright
TTITLE15=Sam "The Man" Taylor - Oo-Wee
TTITLE16=Joe Williams and the Count Basie Orchestra - Every Day, Pts. 1 and 2
TTITLE17=Alan Freed and his Rock'n'Roll Orchestra - Right Now, Right Now
EXTD=
EXTT0=
EXTT1=
EXTT2=
EXTT3=
EXTT4=
EXTT5=
EXTT6=
EXTT7=
EXTT8=
EXTT9=
EXTT10=
EXTT11=
EXTT12=
EXTT13=
EXTT14=
EXTT15=
EXTT16=
EXTT17=
PLAYORDER=
